<!-- 오다르 로고 -->
<svg width="150" height="150" viewBox="0 0 150 150" fill="none" xmlns="http://www.w3.org/2000/svg">
<g filter="url(#filter0_d_1235_3665)">
<path d="M101 58.1949C100.98 43.7043 89.3252 31.9796 74.9629 32C60.6073 32.0205 48.9798 43.7792 49 58.2631C49.0068 64.5785 52.0859 70.1376 55.4418 75.3357C58.9665 80.7927 61.3636 86.0453 64.024 91.8975C65.5838 95.3379 69.8378 96.68 73.5516 96.9389C77.1844 97.1841 81.7963 96.7686 84.8348 94.2615C89.5953 90.3374 89.7033 82.8297 92.8296 77.8224C96.6582 71.7046 101.007 65.7775 101 58.1949Z" fill="#FFCE31"/>
<path d="M66.0753 74.5455C66.2251 75.3091 66.5249 76.0727 66.6748 76.8364C67.1244 78.2364 67.4241 79.5091 67.8737 80.9091C69.2226 85.7455 70.4216 89.8182 71.4707 93H72.3699C71.6205 89.8182 70.5714 85.6182 69.2226 80.7818C68.9228 79.5091 68.4732 78.1091 68.1735 76.7091C68.0236 76.0727 67.8737 75.3091 67.574 74.6727C68.773 74.4182 71.6205 73.6545 74.4681 70.9818C77.3157 73.6545 80.1633 74.4182 81.3622 74.6727C81.2124 75.4364 81.0625 76.0727 80.7628 76.7091C80.463 78.1091 80.0134 79.5091 79.7137 80.7818C78.3648 85.6182 77.3157 89.8182 76.5663 93H77.4656C78.3648 89.8182 79.7137 85.7455 81.0625 80.9091C81.3623 79.6364 81.8119 78.2364 82.2615 76.8364C82.4114 76.0727 82.7111 75.3091 82.861 74.5455C84.0599 74.4182 85.1091 74.1636 85.8584 73.5273C86.7577 72.7636 87.2073 71.8727 86.9075 70.8545C86.7577 70.3455 86.4579 69.7091 85.5587 69.5818C85.1091 69.4545 84.8093 69.4545 84.3597 69.5818C83.9101 69.7091 83.6103 69.9636 83.4605 70.0909C82.7111 70.8545 82.4114 71.6182 82.1116 72.3818L81.662 73.5273C81.662 73.5273 80.463 73.6545 77.6154 72C76.1167 71.1091 75.6671 70.4727 75.2175 70.0909C75.6671 69.5818 76.1167 69.2 76.5663 68.5636C76.7162 68.1818 76.8661 67.9273 77.016 67.4182C77.016 67.0364 77.016 66.5273 76.7162 66.1455C76.4165 65.7636 76.1167 65.3818 75.3674 65.1273C75.0676 65 74.7679 65 74.4681 65C74.1684 65 73.8686 65 73.5689 65.1273C72.9694 65.3818 72.5198 65.7636 72.22 66.1455C71.9203 66.5273 71.9203 67.0364 71.9203 67.4182C71.9203 67.8 72.0702 68.1818 72.3699 68.5636C72.6697 69.2 73.1193 69.7091 73.7188 70.0909C73.2691 70.4727 72.8195 71.1091 71.3208 72C68.6231 73.5273 67.2742 73.5273 67.2742 73.5273L66.8246 72.3818C66.5249 71.6182 66.2251 70.8545 65.4758 70.0909C65.3259 69.9636 65.0262 69.7091 64.5765 69.5818C64.1269 69.4545 63.6773 69.4545 63.3776 69.5818C62.4783 69.8364 62.1786 70.4727 62.0287 70.8545C61.8788 71.8727 62.3285 72.7636 63.0778 73.5273C63.9771 74.1636 65.0262 74.4182 66.0753 74.5455ZM83.4605 72.6364C83.7602 72 84.0599 71.2364 84.6594 70.8545C84.8093 70.7273 84.9592 70.7273 84.9592 70.7273H85.2589C85.4088 70.7273 85.5587 70.8545 85.7085 71.2364C85.8584 71.7455 85.5587 72.5091 84.9592 72.8909C84.5096 73.1455 83.9101 73.4 83.3106 73.5273C83.3106 73.1455 83.3106 72.8909 83.4605 72.6364ZM73.5689 66.5273C73.8686 66.2727 74.1684 66.0182 74.4681 66.0182C74.7679 66.0182 75.0676 66.1455 75.3674 66.5273C75.6671 66.9091 75.5172 67.4182 75.2175 67.9273C75.0676 68.3091 74.7679 68.6909 74.4681 68.9455C74.1684 68.5636 73.8686 68.3091 73.7188 67.9273C73.419 67.5455 73.2691 67.0364 73.5689 66.5273ZM63.3776 70.9818C63.3776 70.7273 63.5274 70.6 63.8272 70.4727H64.1269C64.1269 70.4727 64.2768 70.6 64.4267 70.6C64.8763 70.9818 65.3259 71.7455 65.6257 72.3818C65.7755 72.6364 65.7755 72.8909 65.9254 73.1455C65.3259 73.0182 64.7264 72.8909 64.2768 72.5091C63.6773 72.2545 63.3776 71.6182 63.3776 70.9818Z" fill="#A2C08A"/>
<path d="M81.3763 110.412C81.7898 110.11 82.1333 109.758 82.3716 109.252C82.6589 108.619 82.5608 108.021 82.4907 107.352C82.4346 106.783 82.4907 106.536 82.8762 106.142C83.3107 105.699 83.7523 105.298 83.8294 104.644C83.8854 104.159 83.7803 103.694 83.6892 103.23C83.6401 103.061 83.6121 102.885 83.6121 102.709C83.7102 102.337 84.1798 102.076 84.4391 101.823C85.1119 101.169 85.7357 100.261 85.932 99.3398C86.0581 98.763 86.0301 97.9329 85.6656 97.4475C85.126 96.7299 84.4041 97.0184 83.7172 97.3279C83.4929 97.4264 83.2967 97.553 83.0724 97.6585C78.8112 99.7338 73.793 99.7338 69.2724 98.5871C68.1229 98.2987 66.9735 97.9469 65.9012 97.4404C65.0532 97.0465 63.8547 96.6033 63.273 97.6585C62.7823 98.5449 63.0347 99.7267 63.3921 100.62C63.6024 101.141 64.0579 101.591 64.4364 101.992C64.8008 102.379 64.962 102.576 64.8569 103.068C64.7588 103.518 64.8289 103.898 64.8709 104.356C64.934 104.975 65.0181 105.566 65.4176 106.065C65.8031 106.55 66.3778 106.923 66.7212 107.437C67.0226 107.88 67.0156 108.478 67.1908 108.977C67.4852 109.793 68.193 110.659 68.9079 111.151C69.7209 111.707 70.8143 111.672 71.5221 112.403C72.4543 113.374 73.7859 114.078 75.1596 113.993C76.8417 113.895 77.7458 112.586 79.0284 111.7C79.526 111.355 80.1498 111.207 80.6755 110.884C80.9138 110.722 81.1521 110.574 81.3763 110.412Z" fill="#5B8E31"/>
<path d="M50.4159 118.82C49.5759 118.82 48.9459 118.633 48.5259 118.26C48.1059 117.887 47.8959 117.233 47.8959 116.3V113.22C47.8959 112.287 48.1059 111.633 48.5259 111.26C48.9459 110.887 49.5759 110.7 50.4159 110.7H98.5059C99.3459 110.7 99.9759 110.887 100.396 111.26C100.816 111.633 101.026 112.287 101.026 113.22V116.3C101.026 117.233 100.816 117.887 100.396 118.26C99.9759 118.633 99.3459 118.82 98.5059 118.82H50.4159Z" fill="#5B8E31"/>
</g>
<path d="M63 97H86V99.6667H63V97ZM64.6084 102.333H84.3916V105H64.6084V102.333Z" fill="#A2C08A"/>
<path d="M86 97L65 102.143V104.857L86 99.5714V97ZM66.5789 107.429H82.8421V110H66.5789V107.429Z" fill="#A2C08A"/>
<path d="M84 102L66 107.286V110L84 104.714V102Z" fill="#A2C08A"/>
<rect x="1.5" y="1.5" width="147" height="147" rx="38.5" stroke="#D9D9D9" stroke-width="3"/>
<defs>
<filter id="filter0_d_1235_3665" x="43.8959" y="32" width="61.13" height="94.82" filterUnits="userSpaceOnUse" color-interpolation-filters="sRGB">
<feFlood flood-opacity="0" result="BackgroundImageFix"/>
<feColorMatrix in="SourceAlpha" type="matrix" values="0 0 0 0 0 0 0 0 0 0 0 0 0 0 0 0 0 0 127 0" result="hardAlpha"/>
<feOffset dy="4"/>
<feGaussianBlur stdDeviation="2"/>
<feComposite in2="hardAlpha" operator="out"/>
<feColorMatrix type="matrix" values="0 0 0 0 0 0 0 0 0 0 0 0 0 0 0 0 0 0 0.25 0"/>
<feBlend mode="normal" in2="BackgroundImageFix" result="effect1_dropShadow_1235_3665"/>
<feBlend mode="normal" in="SourceGraphic" in2="effect1_dropShadow_1235_3665" result="shape"/>
</filter>
</defs>
</svg>
